
<svg width="337px" height="61px" viewBox="5 11 337 61" version="1.1" xmlns="http://www.w3.org/2000/svg" xmlns:xlink="http://www.w3.org/1999/xlink">
    <!-- Generator: Sketch 39.1 (31720) - http://www.bohemiancoding.com/sketch -->
    <desc>Created with Sketch.</desc>
    <defs></defs>
    <g id="Group" stroke="none" stroke-width="1" fill="none" fill-rule="evenodd" transform="translate(5.000000, 11.000000)">
        <path d="M0.933825254,35 L9.43382525,35 L9.43382525,23.1 L10.2838253,23.1 C14.3338253,23.1 16.5338253,28.15 17.5338253,35 L26.3838253,35 C25.7838253,28.1 23.7338253,22 19.3338253,19.65 C22.4338253,18.65 25.0838253,15.9 25.0838253,11.1 C25.0838253,4.6 20.3838253,1 13.5838253,1 L0.933825254,1 L0.933825254,35 Z M16.3338253,12.05 C16.3338253,13.9 15.1838253,14.9 13.5338253,14.9 L9.43382525,14.9 L9.43382525,9.2 L13.5338253,9.2 C15.1838253,9.2 16.3338253,10.2 16.3338253,12.05 L16.3338253,12.05 Z M51.4808835,1 L51.4808835,22.6 C51.4808835,25.35 49.6808835,27.3 46.6808835,27.3 C43.6808835,27.3 41.8808835,25.35 41.8808835,22.6 L41.8808835,1 L33.3808835,1 L33.3808835,21.9 C33.3808835,30.55 38.5308835,35.55 46.6808835,35.55 C54.8308835,35.55 59.9808835,30.55 59.9808835,21.9 L59.9808835,1 L51.4808835,1 Z M87.2279418,1.85 C85.0279418,0.95 82.3279418,0.45 79.9779418,0.45 C70.5779418,0.45 67.5279418,5.9 67.5279418,10.85 C67.5279418,14.9 68.9279418,17.95 73.6779418,20.65 L77.7279418,22.95 C79.3279418,23.85 79.9779418,24.6 79.9779418,25.4 C79.9779418,26.85 78.8279418,27.6 76.8279418,27.6 C73.8279418,27.6 70.3279418,26.15 68.4779418,24.7 L68.4779418,33.95 C70.7279418,34.85 73.9279418,35.55 77.1779418,35.55 C85.4279418,35.55 89.0279418,30.5 89.0279418,24.9 C89.0279418,20.95 87.1779418,17.8 82.6779418,15.2 L78.8279418,13 C77.4279418,12.2 76.6279418,11.35 76.6279418,10.55 C76.6279418,9.4 77.4779418,8.4 79.9279418,8.4 C82.3779418,8.4 85.5279418,9.6 87.2279418,10.7 L87.2279418,1.85 Z M119.275,24.5 C117.725,25.95 115.125,27.05 112.125,27.05 C107.125,27.05 103.375,23 103.375,18 C103.375,13.05 107.125,8.95 112.125,8.95 C115.125,8.95 117.625,10.05 119.275,11.6 L119.275,1.85 C117.125,0.95 114.675,0.45 112.125,0.45 C102.175,0.45 94.625,8.05 94.625,18 C94.625,27.95 102.175,35.55 112.125,35.55 C114.675,35.55 117.125,35.05 119.275,34.15 L119.275,24.5 Z M127.472058,35 L135.972058,35 L135.972058,1 L127.472058,1 L127.472058,35 Z M143.419116,18 C143.419116,27.95 150.969116,35.55 160.919116,35.55 C170.869116,35.55 178.419116,27.95 178.419116,18 C178.419116,8.05 170.869116,0.45 160.919116,0.45 C150.969116,0.45 143.419116,8.05 143.419116,18 L143.419116,18 Z M152.169116,18 C152.169116,13.05 155.919116,8.95 160.919116,8.95 C165.869116,8.95 169.669116,13.05 169.669116,18 C169.669116,23 165.869116,27.05 160.919116,27.05 C155.919116,27.05 152.169116,23 152.169116,18 L152.169116,18 Z" id="RUSCIO-Copy-2" fill="#FFFFFF"></path>
        <path d="M218.910681,29.35 C216.460681,31.4 213.110681,32.65 209.410681,32.65 C201.160681,32.65 194.960681,26.25 194.960681,18 C194.960681,9.75 201.160681,3.35 209.410681,3.35 C213.110681,3.35 216.460681,4.6 218.910681,6.7 L218.910681,3.2 C216.260681,1.5 212.960681,0.5 209.410681,0.5 C199.460681,0.5 191.910681,8.05 191.910681,18 C191.910681,27.95 199.460681,35.5 209.410681,35.5 C212.960681,35.5 216.260681,34.5 218.910681,32.8 L218.910681,29.35 Z M221.045974,18 C221.045974,27.95 228.595974,35.5 238.545974,35.5 C248.495974,35.5 256.045974,27.95 256.045974,18 C256.045974,8.05 248.495974,0.5 238.545974,0.5 C228.595974,0.5 221.045974,8.05 221.045974,18 L221.045974,18 Z M224.095974,18 C224.095974,9.75 230.295974,3.35 238.545974,3.35 C246.795974,3.35 253.045974,9.75 253.045974,18 C253.045974,26.25 246.795974,32.65 238.545974,32.65 C230.295974,32.65 224.095974,26.25 224.095974,18 L224.095974,18 Z M282.081267,1 L282.081267,23.3 C282.081267,28.9 278.481267,32.65 273.081267,32.65 C267.531267,32.65 263.881267,28.9 263.881267,23.3 L263.881267,1 L260.981267,1 L260.981267,23.2 C260.981267,30.65 265.631267,35.5 273.031267,35.5 C280.381267,35.5 284.981267,30.65 284.981267,23.2 L284.981267,1 L282.081267,1 Z M292.366559,35 L295.266559,35 L295.266559,20 L299.666559,20 C304.266559,20 309.216559,26 310.916559,35 L313.916559,35 C312.466559,26.55 308.516559,20.9 304.516559,19.15 C308.766559,18.15 311.966559,15.3 311.966559,10.35 C311.966559,4.55 307.716559,1 301.566559,1 L292.366559,1 L292.366559,35 Z M308.916559,10.55 C308.916559,14.9 305.766559,17.3 301.516559,17.3 L295.266559,17.3 L295.266559,3.7 L301.516559,3.7 C305.766559,3.7 308.916559,6.25 308.916559,10.55 L308.916559,10.55 Z M323.401852,35 L326.301852,35 L326.301852,3.7 L335.701852,3.7 L335.701852,1 L313.901852,1 L313.901852,3.7 L323.401852,3.7 L323.401852,35 Z" id="COURT-Copy" fill="#FFFFFF"></path>
        <path d="M3.3,53.9217391 L5.24,53.9217391 C6.72,53.9217391 7.54,54.9617391 7.54,56.3017391 C7.54,58.2217391 5.9,59.5617391 4.06,59.5617391 C2.9,59.5617391 2.06,59.1217391 1.5,58.6017391 L1.28,59.9017391 C1.74,60.2617391 2.74,60.7217391 4,60.7217391 C6.56,60.7217391 8.74,58.8817391 8.74,56.3217391 C8.74,54.9017391 8.12,53.9617391 7.18,53.4017391 C8.46,52.8817391 9.52,51.5217391 9.52,49.7617391 C9.52,48.0017391 8.32,46.7217391 6.24,46.7217391 C4.98,46.7217391 4.2,47.0217391 3.62,47.3417391 L3.4,48.7017391 C4.1,48.1817391 5.1,47.8817391 6.08,47.8817391 C7.46,47.8817391 8.28,48.6817391 8.28,49.9017391 C8.28,51.5217391 7.08,52.8217391 5.42,52.8217391 L3.5,52.8217391 L3.3,53.9217391 Z M20.45,46.9217391 L19.01,46.9217391 L13.91,53.0817391 C13.01,54.1617391 12.43,55.2217391 12.43,56.6417391 C12.43,58.8817391 13.89,60.7217391 16.37,60.7217391 C19.19,60.7217391 21.65,58.3417391 21.65,55.4217391 C21.65,53.1017391 20.15,51.4217391 17.85,51.4217391 C17.43,51.4217391 16.95,51.5217391 16.49,51.6617391 L20.45,46.9217391 Z M20.45,55.5017391 C20.45,57.7217391 18.59,59.5617391 16.45,59.5617391 C14.75,59.5617391 13.65,58.2817391 13.65,56.6017391 C13.65,54.3817391 15.57,52.5417391 17.69,52.5417391 C19.39,52.5417391 20.45,53.8217391 20.45,55.5017391 L20.45,55.5017391 Z M31.53,60.5217391 L35.33,60.5217391 C37.91,60.5217391 40.13,59.0417391 40.13,56.3217391 C40.13,54.9217391 39.37,53.9617391 38.23,53.5417391 C39.79,53.0217391 40.83,51.7017391 40.83,49.9217391 C40.83,48.0817391 39.45,46.9217391 37.51,46.9217391 L33.93,46.9217391 L31.53,60.5217391 Z M38.93,56.2817391 C38.93,58.4417391 37.27,59.4417391 35.53,59.4417391 L32.89,59.4417391 L33.83,54.0617391 L36.47,54.0617391 C37.85,54.0617391 38.93,54.7817391 38.93,56.2817391 L38.93,56.2817391 Z M39.61,50.0617391 C39.61,52.0817391 38.05,52.9817391 36.43,52.9817391 L34.03,52.9817391 L34.89,48.0017391 L37.31,48.0017391 C38.57,48.0017391 39.61,48.6417391 39.61,50.0617391 L39.61,50.0617391 Z M43.7200001,56.4017391 C43.7200001,58.9017391 45.4400001,60.7217391 47.9400001,60.7217391 C50.9200001,60.7217391 53.6000001,58.1217391 53.6000001,55.0217391 C53.6000001,52.5217391 51.8600001,50.7017391 49.3600001,50.7017391 C46.3800001,50.7017391 43.7200001,53.3017391 43.7200001,56.4017391 L43.7200001,56.4017391 Z M44.9000001,56.3217391 C44.9000001,53.8817391 47.0200001,51.8217391 49.3000001,51.8217391 C51.2000001,51.8217391 52.4000001,53.2617391 52.4000001,55.0817391 C52.4000001,57.5417391 50.2800001,59.6017391 48.0200001,59.6017391 C46.1000001,59.6017391 44.9000001,58.1617391 44.9000001,56.3217391 L44.9000001,56.3217391 Z M66.0900001,56.2017391 C66.1700001,55.9617391 66.3100001,55.2617391 66.3100001,54.7017391 C66.3100001,52.4217391 64.7500001,50.7017391 62.3700001,50.7017391 C59.3500001,50.7017391 56.8300001,53.2817391 56.8300001,56.4217391 C56.8300001,58.9417391 58.4100001,60.7217391 60.8900001,60.7217391 C62.3700001,60.7217391 63.6100001,60.1417391 64.4700001,59.5817391 L64.7100001,58.3017391 C63.8500001,58.9617391 62.3700001,59.6617391 61.0100001,59.6617391 C59.0500001,59.6617391 57.8700001,58.2017391 57.9900001,56.2017391 L66.0900001,56.2017391 Z M62.3100001,51.7217391 C64.0100001,51.7217391 65.1900001,52.8817391 65.1900001,54.6817391 C65.1900001,54.8617391 65.1700001,55.0617391 65.1300001,55.2417391 L58.1300001,55.2417391 C58.5300001,53.2417391 60.3500001,51.7217391 62.3100001,51.7217391 L62.3100001,51.7217391 Z M72.7000001,46.7217391 L71.5600001,46.7217391 L69.1200001,60.5217391 L70.2600001,60.5217391 L71.2800001,54.7017391 C71.6200001,53.0017391 72.8400001,51.8217391 74.5000001,51.8217391 C76.2000001,51.8217391 77.0200001,53.0617391 76.7200001,54.8217391 L75.7200001,60.5217391 L76.8200001,60.5217391 L77.8600001,54.6217391 C78.2600001,52.3417391 77.1000001,50.7017391 74.8800001,50.7017391 C73.4400001,50.7017391 72.4000001,51.3217391 71.6800001,52.4617391 L72.7000001,46.7217391 Z M84.1500001,50.9017391 L83.0100001,50.9017391 L81.3100001,60.5217391 L82.4500001,60.5217391 L83.5300001,54.4017391 C83.8700001,52.7217391 85.0300001,51.8217391 86.4100001,51.8217391 C87.8300001,51.8217391 88.6700001,52.7617391 88.3700001,54.5417391 L87.2900001,60.5217391 L88.4300001,60.5217391 L89.4900001,54.5417391 C89.7900001,52.7817391 91.0100001,51.8217391 92.4300001,51.8217391 C93.8300001,51.8217391 94.6700001,52.7617391 94.3700001,54.5417391 L93.3100001,60.5217391 L94.4500001,60.5217391 L95.5300001,54.3217391 C95.9300001,52.0417391 94.6900001,50.7017391 92.7900001,50.7017391 C91.3100001,50.7017391 90.1700001,51.3217391 89.5100001,52.6617391 C89.2900001,51.3617391 88.2300001,50.7017391 86.7700001,50.7017391 C85.5300001,50.7017391 84.5700001,51.2017391 83.9100001,52.2217391 L84.1500001,50.9017391 Z M108.38,56.2017391 C108.46,55.9617391 108.6,55.2617391 108.6,54.7017391 C108.6,52.4217391 107.04,50.7017391 104.66,50.7017391 C101.64,50.7017391 99.1200001,53.2817391 99.1200001,56.4217391 C99.1200001,58.9417391 100.7,60.7217391 103.18,60.7217391 C104.66,60.7217391 105.9,60.1417391 106.76,59.5817391 L107,58.3017391 C106.14,58.9617391 104.66,59.6617391 103.3,59.6617391 C101.34,59.6617391 100.16,58.2017391 100.28,56.2017391 L108.38,56.2017391 Z M104.6,51.7217391 C106.3,51.7217391 107.48,52.8817391 107.48,54.6817391 C107.48,54.8617391 107.46,55.0617391 107.42,55.2417391 L100.42,55.2417391 C100.82,53.2417391 102.64,51.7217391 104.6,51.7217391 L104.6,51.7217391 Z M114.25,50.9017391 L113.11,50.9017391 L111.41,60.5217391 L112.55,60.5217391 L113.57,54.7017391 C113.91,53.0017391 114.83,51.8217391 116.27,51.8217391 C116.69,51.8217391 117.11,51.9217391 117.37,52.0217391 L117.59,50.8017391 C117.33,50.7417391 116.97,50.7017391 116.67,50.7017391 C115.43,50.7017391 114.63,51.2017391 114.01,52.1817391 L114.25,50.9017391 Z M125.81,60.5217391 L129.61,60.5217391 C132.19,60.5217391 134.41,59.0417391 134.41,56.3217391 C134.41,54.9217391 133.65,53.9617391 132.51,53.5417391 C134.07,53.0217391 135.11,51.7017391 135.11,49.9217391 C135.11,48.0817391 133.73,46.9217391 131.79,46.9217391 L128.21,46.9217391 L125.81,60.5217391 Z M133.21,56.2817391 C133.21,58.4417391 131.55,59.4417391 129.81,59.4417391 L127.17,59.4417391 L128.11,54.0617391 L130.75,54.0617391 C132.13,54.0617391 133.21,54.7817391 133.21,56.2817391 L133.21,56.2817391 Z M133.89,50.0617391 C133.89,52.0817391 132.33,52.9817391 130.71,52.9817391 L128.31,52.9817391 L129.17,48.0017391 L131.59,48.0017391 C132.85,48.0017391 133.89,48.6417391 133.89,50.0617391 L133.89,50.0617391 Z M141.44,46.7217391 L140.32,46.7217391 L137.88,60.5217391 L139,60.5217391 L141.44,46.7217391 Z M144.25,50.9017391 L146.37,60.5217391 L147.59,60.5217391 L153.11,50.9017391 L151.85,50.9017391 L147.17,59.1417391 L145.41,50.9017391 L144.25,50.9017391 Z M163.8,60.5217391 L166.2,46.7217391 L165.1,46.7217391 L163.94,53.2617391 C163.52,51.8017391 162.22,50.7017391 160.4,50.7017391 C157.38,50.7017391 154.84,53.3417391 154.84,56.4017391 C154.84,58.8617391 156.48,60.7217391 158.86,60.7217391 C160.62,60.7217391 162.12,59.8217391 163.08,58.3417391 L162.66,60.5217391 L163.8,60.5217391 Z M163.58,55.1017391 C163.58,57.5417391 161.48,59.6017391 159.12,59.6017391 C157.26,59.6017391 156.02,58.1617391 156.02,56.3217391 C156.02,53.8817391 158.14,51.8217391 160.48,51.8217391 C162.34,51.8217391 163.58,53.2617391 163.58,55.1017391 L163.58,55.1017391 Z M168.31,59.9017391 C168.31,60.3617391 168.63,60.7217391 169.13,60.7217391 C169.75,60.7217391 170.29,60.2217391 170.29,59.5817391 C170.29,59.1217391 169.95,58.7617391 169.47,58.7617391 C168.85,58.7617391 168.31,59.2617391 168.31,59.9017391 L168.31,59.9017391 Z M189.57,47.5417391 C188.97,47.1017391 188.01,46.7217391 186.75,46.7217391 C184.15,46.7217391 182.39,48.3017391 182.39,50.4217391 C182.39,51.4017391 182.69,52.2817391 183.87,53.1817391 L186.07,54.8617391 C186.89,55.4617391 187.27,56.2017391 187.27,56.9417391 C187.27,58.2617391 186.07,59.6217391 183.99,59.6217391 C182.59,59.6217391 181.63,59.0217391 181.07,58.4417391 L180.87,59.8217391 C181.51,60.2617391 182.53,60.7217391 183.93,60.7217391 C186.89,60.7217391 188.55,58.7617391 188.55,56.7617391 C188.55,55.6817391 188.03,54.7617391 186.87,53.8817391 L184.63,52.1817391 C183.97,51.6617391 183.69,51.0817391 183.69,50.4017391 C183.69,48.8817391 184.97,47.8217391 186.73,47.8217391 C187.89,47.8217391 188.75,48.2817391 189.41,48.9017391 L189.57,47.5417391 Z M200.76,55.0817391 C200.76,57.5417391 198.68,59.6017391 196.38,59.6017391 C194.48,59.6017391 193.26,58.1817391 193.26,56.3217391 C193.26,53.8817391 195.4,51.8217391 197.66,51.8217391 C199.56,51.8217391 200.76,53.2617391 200.76,55.0817391 L200.76,55.0817391 Z M201,60.5217391 L202.68,50.9017391 L201.56,50.9017391 L201.14,53.2617391 C200.7,51.7617391 199.44,50.7017391 197.58,50.7017391 C194.64,50.7017391 192.08,53.3617391 192.08,56.4217391 C192.08,58.8617391 193.7,60.7217391 196.14,60.7217391 C197.84,60.7217391 199.34,59.8217391 200.28,58.3417391 L199.86,60.5217391 L201,60.5217391 Z M212.09,60.5217391 L213.23,60.5217391 L214.93,50.9017391 L213.79,50.9017391 L212.75,56.7417391 C212.41,58.4417391 211.19,59.6017391 209.53,59.6017391 C207.83,59.6017391 207.05,58.3617391 207.35,56.6017391 L208.35,50.9017391 L207.21,50.9017391 L206.19,56.8017391 C205.79,59.0817391 206.97,60.7217391 209.17,60.7217391 C210.63,60.7217391 211.69,60.1217391 212.39,59.0017391 L212.09,60.5217391 Z M221.46,46.7217391 L220.34,46.7217391 L217.9,60.5217391 L219.02,60.5217391 L221.46,46.7217391 Z M225.51,60.5217391 L227.05,51.9017391 L228.99,51.9017391 L229.17,50.9017391 L227.21,50.9017391 L227.71,48.0817391 L226.55,48.4017391 L226.11,50.9017391 L224.19,50.9017391 L224.01,51.9017391 L225.91,51.9017391 L224.39,60.5217391 L225.51,60.5217391 Z M245.71,47.5417391 C245.11,47.1017391 244.15,46.7217391 242.89,46.7217391 C240.29,46.7217391 238.53,48.3017391 238.53,50.4217391 C238.53,51.4017391 238.83,52.2817391 240.01,53.1817391 L242.21,54.8617391 C243.03,55.4617391 243.41,56.2017391 243.41,56.9417391 C243.41,58.2617391 242.21,59.6217391 240.13,59.6217391 C238.73,59.6217391 237.77,59.0217391 237.21,58.4417391 L237.01,59.8217391 C237.65,60.2617391 238.67,60.7217391 240.07,60.7217391 C243.03,60.7217391 244.69,58.7617391 244.69,56.7617391 C244.69,55.6817391 244.17,54.7617391 243.01,53.8817391 L240.77,52.1817391 C240.11,51.6617391 239.83,51.0817391 239.83,50.4017391 C239.83,48.8817391 241.11,47.8217391 242.87,47.8217391 C244.03,47.8217391 244.89,48.2817391 245.55,48.9017391 L245.71,47.5417391 Z M249.76,60.5217391 L251.3,51.9017391 L253.24,51.9017391 L253.42,50.9017391 L251.46,50.9017391 L251.96,48.0817391 L250.8,48.4017391 L250.36,50.9017391 L248.44,50.9017391 L248.26,51.9017391 L250.16,51.9017391 L248.64,60.5217391 L249.76,60.5217391 Z M264.43,56.2017391 C264.51,55.9617391 264.65,55.2617391 264.65,54.7017391 C264.65,52.4217391 263.09,50.7017391 260.71,50.7017391 C257.69,50.7017391 255.17,53.2817391 255.17,56.4217391 C255.17,58.9417391 256.75,60.7217391 259.23,60.7217391 C260.71,60.7217391 261.95,60.1417391 262.81,59.5817391 L263.05,58.3017391 C262.19,58.9617391 260.71,59.6617391 259.35,59.6617391 C257.39,59.6617391 256.21,58.2017391 256.33,56.2017391 L264.43,56.2017391 Z M260.65,51.7217391 C262.35,51.7217391 263.53,52.8817391 263.53,54.6817391 C263.53,54.8617391 263.51,55.0617391 263.47,55.2417391 L256.47,55.2417391 C256.87,53.2417391 258.69,51.7217391 260.65,51.7217391 L260.65,51.7217391 Z M281.37,60.5217391 L288.17,49.2417391 L286.19,60.5217391 L287.35,60.5217391 L289.75,46.9217391 L288.37,46.9217391 L281.05,59.0617391 L277.99,46.9217391 L276.73,46.9217391 L274.33,60.5217391 L275.49,60.5217391 L277.49,49.2417391 L280.33,60.5217391 L281.37,60.5217391 Z M301.04,55.0817391 C301.04,57.5417391 298.96,59.6017391 296.66,59.6017391 C294.76,59.6017391 293.54,58.1817391 293.54,56.3217391 C293.54,53.8817391 295.68,51.8217391 297.94,51.8217391 C299.84,51.8217391 301.04,53.2617391 301.04,55.0817391 L301.04,55.0817391 Z M301.28,60.5217391 L302.96,50.9017391 L301.84,50.9017391 L301.42,53.2617391 C300.98,51.7617391 299.72,50.7017391 297.86,50.7017391 C294.92,50.7017391 292.36,53.3617391 292.36,56.4217391 C292.36,58.8617391 293.98,60.7217391 296.42,60.7217391 C298.12,60.7217391 299.62,59.8217391 300.56,58.3417391 L300.14,60.5217391 L301.28,60.5217391 Z M308.73,50.9017391 L307.59,50.9017391 L305.89,60.5217391 L307.03,60.5217391 L308.05,54.7017391 C308.39,53.0017391 309.31,51.8217391 310.75,51.8217391 C311.17,51.8217391 311.59,51.9217391 311.85,52.0217391 L312.07,50.8017391 C311.81,50.7417391 311.45,50.7017391 311.15,50.7017391 C309.91,50.7017391 309.11,51.2017391 308.49,52.1817391 L308.73,50.9017391 Z M316.66,50.9017391 L315.52,50.9017391 L313.84,60.5217391 L314.98,60.5217391 L316.66,50.9017391 Z M315.8,47.8617391 C315.8,48.2817391 316.1,48.5817391 316.5,48.5817391 C317.06,48.5817391 317.5,48.1417391 317.5,47.6217391 C317.5,47.2217391 317.24,46.9017391 316.8,46.9017391 C316.28,46.9017391 315.8,47.3417391 315.8,47.8617391 L315.8,47.8617391 Z M329.01,56.2017391 C329.09,55.9617391 329.23,55.2617391 329.23,54.7017391 C329.23,52.4217391 327.67,50.7017391 325.29,50.7017391 C322.27,50.7017391 319.75,53.2817391 319.75,56.4217391 C319.75,58.9417391 321.33,60.7217391 323.81,60.7217391 C325.29,60.7217391 326.53,60.1417391 327.39,59.5817391 L327.63,58.3017391 C326.77,58.9617391 325.29,59.6617391 323.93,59.6617391 C321.97,59.6617391 320.79,58.2017391 320.91,56.2017391 L329.01,56.2017391 Z M325.23,51.7217391 C326.93,51.7217391 328.11,52.8817391 328.11,54.6817391 C328.11,54.8617391 328.09,55.0617391 328.05,55.2417391 L321.05,55.2417391 C321.45,53.2417391 323.27,51.7217391 325.23,51.7217391 L325.23,51.7217391 Z" id="36-Boehmer-Blvd.-Sau" fill="#FFFFFF"></path>
    </g>
</svg>